# xmcd
#
# Track frame offsets:
#	182
#	13020
#	32725
#	43697
#	56047
#	68902
#	79622
#	96577
#	105935
#	120910
#	134205
#	146537
#	158722
#	181435
#	193217
#	207255
#	215662
#	235157
#	247220
#	266895
#
# Disc length: 3688 seconds
#
# Revision: 0
# Processed by: cddbd v1.5.2PL0 Copyright (c) Steve Scherf et al.
# Submitted via: SynApp - FreeCDDB Version: 2.0
#
DISCID=300e6614
DTITLE=? - Songs for the road
DYEAR=1901
DGENRE=Country
TTITLE0=Kenny Rogers - Ruby, don`t take...
TTITLE1=Lee Hazlewood - The ballad of Lucy Jordan
TTITLE2=Johnny Cash - I love you because
TTITLE3=Jerry Lee Lewis - Crazy arms
TTITLE4=Lynn Anderson - Rose garden
TTITLE5=Roger Miller - King of the Road
TTITLE6=Lynn Anderson - Blue bayou
TTITLE7=Elvis Presley - Blue moon of Kenntucky
TTITLE8=Kingston Trio - Tom Dooley
TTITLE9=Hank Locklin - Please help me....
TTITLE10=Kenny Rogers - Reuben James
TTITLE11=Kirk Douglas - And the moon grew brighter
TTITLE12=Billy Ray Cyrus - Achy breaky heart
TTITLE13=Johnny Cash - Ring of fire
TTITLE14=Elvis Presley - Lonesome cowboy
TTITLE15=Lorne Greene - Bonanza
TTITLE16=Tina Turner - Lovin him was easier
TTITLE17=Susan Raye - L.A.International Airport
TTITLE18=Mary Robbins - El paso
TTITLE19=Dolly Parton - Release me
EXTD=
EXTT0=
EXTT1=
EXTT2=
EXTT3=
EXTT4=
EXTT5=
EXTT6=
EXTT7=
EXTT8=
EXTT9=
EXTT10=
EXTT11=
EXTT12=
EXTT13=
EXTT14=
EXTT15=
EXTT16=
EXTT17=
EXTT18=
EXTT19=
PLAYORDER=
